{
	"asset":{
		"generator":"Khronos glTF Blender I/O v4.0.44",
		"version":"2.0"
	},
	"scene":0,
	"scenes":[
		{
			"name":"Scene",
			"nodes":[
				0
			]
		}
	],
	"nodes":[
		{
			"mesh":0,
			"name":"MS_CHA_Hair_S01",
			"rotation":[
				0.7071068286895752,
				0,
				0,
				0.7071068286895752
			]
		}
	],
	"materials":[
		{
			"doubleSided":true,
			"name":"Hair",
			"pbrMetallicRoughness":{
				"baseColorFactor":[
					0.800000011920929,
					0.800000011920929,
					0.800000011920929,
					1
				],
				"metallicFactor":0,
				"roughnessFactor":0.5
			}
		}
	],
	"meshes":[
		{
			"name":"MS_CHA_Hair_S01",
			"primitives":[
				{
					"attributes":{
						"POSITION":0,
						"NORMAL":1,
						"TEXCOORD_0":2,
						"TANGENT":3
					},
					"indices":4,
					"material":0
				}
			]
		}
	],
	"accessors":[
		{
			"bufferView":0,
			"componentType":5126,
			"count":1956,
			"max":[
				0.4979475736618042,
				0.36442816257476807,
				0.22090421617031097
			],
			"min":[
				-0.5537951588630676,
				-0.5751335620880127,
				-0.3361894488334656
			],
			"type":"VEC3"
		},
		{
			"bufferView":1,
			"componentType":5126,
			"count":1956,
			"type":"VEC3"
		},
		{
			"bufferView":2,
			"componentType":5126,
			"count":1956,
			"type":"VEC2"
		},
		{
			"bufferView":3,
			"componentType":5126,
			"count":1956,
			"type":"VEC4"
		},
		{
			"bufferView":4,
			"componentType":5123,
			"count":8607,
			"type":"SCALAR"
		}
	],
	"bufferViews":[
		{
			"buffer":0,
			"byteLength":23472,
			"byteOffset":0,
			"target":34962
		},
		{
			"buffer":0,
			"byteLength":23472,
			"byteOffset":23472,
			"target":34962
		},
		{
			"buffer":0,
			"byteLength":15648,
			"byteOffset":46944,
			"target":34962
		},
		{
			"buffer":0,
			"byteLength":31296,
			"byteOffset":62592,
			"target":34962
		},
		{
			"buffer":0,
			"byteLength":17214,
			"byteOffset":93888,
			"target":34963
		}
	],
	"buffers":[
		{
			"byteLength":111104,
			"uri":"Hair.bin"
		}
	]
}
