{
	"asset":{
		"generator":"Khronos glTF Blender I/O v4.0.44",
		"version":"2.0"
	},
	"extensionsUsed":[
		"KHR_materials_specular",
		"KHR_materials_ior"
	],
	"scene":0,
	"scenes":[
		{
			"name":"Scene",
			"nodes":[
				0
			]
		}
	],
	"nodes":[
		{
			"mesh":0,
			"name":"SM_Stockings",
			"rotation":[
				-1,
				0,
				0,
				1.9470719792025193e-07
			]
		}
	],
	"materials":[
		{
			"doubleSided":true,
			"extensions":{
				"KHR_materials_specular":{
					"specularFactor":0.5
				},
				"KHR_materials_ior":{
					"ior":1.4500000476837158
				}
			},
			"name":"M_Stockings",
			"pbrMetallicRoughness":{
				"baseColorFactor":[
					0,
					0,
					0,
					1
				],
				"roughnessFactor":0
			}
		}
	],
	"meshes":[
		{
			"name":"SM_Stockings",
			"primitives":[
				{
					"attributes":{
						"COLOR_0":0,
						"POSITION":1,
						"NORMAL":2,
						"TEXCOORD_0":3,
						"TANGENT":4
					},
					"indices":5,
					"material":0
				}
			]
		}
	],
	"accessors":[
		{
			"bufferView":0,
			"componentType":5123,
			"count":2980,
			"normalized":true,
			"type":"VEC4"
		},
		{
			"bufferView":1,
			"componentType":5126,
			"count":2980,
			"max":[
				0.1894489973783493,
				0.14069899916648865,
				-0.007191999815404415
			],
			"min":[
				-0.1894489973783493,
				-0.1319970041513443,
				-1.1463069915771484
			],
			"type":"VEC3"
		},
		{
			"bufferView":2,
			"componentType":5126,
			"count":2980,
			"type":"VEC3"
		},
		{
			"bufferView":3,
			"componentType":5126,
			"count":2980,
			"type":"VEC2"
		},
		{
			"bufferView":4,
			"componentType":5126,
			"count":2980,
			"type":"VEC4"
		},
		{
			"bufferView":5,
			"componentType":5123,
			"count":15450,
			"type":"SCALAR"
		}
	],
	"bufferViews":[
		{
			"buffer":0,
			"byteLength":23840,
			"byteOffset":0,
			"target":34962
		},
		{
			"buffer":0,
			"byteLength":35760,
			"byteOffset":23840,
			"target":34962
		},
		{
			"buffer":0,
			"byteLength":35760,
			"byteOffset":59600,
			"target":34962
		},
		{
			"buffer":0,
			"byteLength":23840,
			"byteOffset":95360,
			"target":34962
		},
		{
			"buffer":0,
			"byteLength":47680,
			"byteOffset":119200,
			"target":34962
		},
		{
			"buffer":0,
			"byteLength":30900,
			"byteOffset":166880,
			"target":34963
		}
	],
	"buffers":[
		{
			"byteLength":197780,
			"uri":"Stocking.bin"
		}
	]
}
