{
	"asset":{
		"generator":"Khronos glTF Blender I/O v4.0.44",
		"version":"2.0"
	},
	"extensionsUsed":[
		"KHR_materials_specular",
		"KHR_materials_ior"
	],
	"scene":0,
	"scenes":[
		{
			"name":"Scene",
			"nodes":[
				0
			]
		}
	],
	"nodes":[
		{
			"mesh":0,
			"name":"MaterialBaseInside",
			"rotation":[
				0.70710688829422,
				0,
				0,
				0.7071066498756409
			],
			"scale":[
				0.009999999776482582,
				0.009999999776482582,
				0.009999999776482582
			]
		}
	],
	"materials":[
		{
			"doubleSided":true,
			"extensions":{
				"KHR_materials_specular":{
					"specularFactor":0
				},
				"KHR_materials_ior":{
					"ior":1.4500000476837158
				}
			},
			"name":"02 - Default",
			"pbrMetallicRoughness":{
				"baseColorFactor":[
					1,
					1,
					1,
					0
				],
				"metallicFactor":0,
				"roughnessFactor":0.8599720001220703
			}
		},
		{
			"doubleSided":true,
			"extensions":{
				"KHR_materials_specular":{
					"specularFactor":0
				},
				"KHR_materials_ior":{
					"ior":1.4500000476837158
				}
			},
			"name":"03 - Default",
			"pbrMetallicRoughness":{
				"baseColorFactor":[
					1,
					1,
					1,
					0
				],
				"metallicFactor":0,
				"roughnessFactor":0.8599720001220703
			}
		}
	],
	"meshes":[
		{
			"name":"Untitled",
			"primitives":[
				{
					"attributes":{
						"COLOR_0":0,
						"POSITION":1,
						"NORMAL":2,
						"TEXCOORD_0":3
					},
					"indices":4,
					"material":0
				},
				{
					"attributes":{
						"COLOR_0":5,
						"POSITION":6,
						"NORMAL":7,
						"TEXCOORD_0":8
					},
					"indices":9,
					"material":1
				}
			]
		}
	],
	"accessors":[
		{
			"bufferView":0,
			"componentType":5123,
			"count":20993,
			"normalized":true,
			"type":"VEC4"
		},
		{
			"bufferView":1,
			"componentType":5126,
			"count":20993,
			"max":[
				134.5697784423828,
				267.76458740234375,
				115.54182434082031
			],
			"min":[
				-134.5697784423828,
				2.0560836791992188,
				-134.56979370117188
			],
			"type":"VEC3"
		},
		{
			"bufferView":2,
			"componentType":5126,
			"count":20993,
			"type":"VEC3"
		},
		{
			"bufferView":3,
			"componentType":5126,
			"count":20993,
			"type":"VEC2"
		},
		{
			"bufferView":4,
			"componentType":5123,
			"count":60456,
			"type":"SCALAR"
		},
		{
			"bufferView":5,
			"componentType":5123,
			"count":5162,
			"normalized":true,
			"type":"VEC4"
		},
		{
			"bufferView":6,
			"componentType":5126,
			"count":5162,
			"max":[
				92.55422973632812,
				239.99441528320312,
				88.70384979248047
			],
			"min":[
				-92.5537109375,
				15.999984741210938,
				-80.45596313476562
			],
			"type":"VEC3"
		},
		{
			"bufferView":7,
			"componentType":5126,
			"count":5162,
			"type":"VEC3"
		},
		{
			"bufferView":8,
			"componentType":5126,
			"count":5162,
			"type":"VEC2"
		},
		{
			"bufferView":9,
			"componentType":5123,
			"count":17376,
			"type":"SCALAR"
		}
	],
	"bufferViews":[
		{
			"buffer":0,
			"byteLength":167944,
			"byteOffset":0,
			"target":34962
		},
		{
			"buffer":0,
			"byteLength":251916,
			"byteOffset":167944,
			"target":34962
		},
		{
			"buffer":0,
			"byteLength":251916,
			"byteOffset":419860,
			"target":34962
		},
		{
			"buffer":0,
			"byteLength":167944,
			"byteOffset":671776,
			"target":34962
		},
		{
			"buffer":0,
			"byteLength":120912,
			"byteOffset":839720,
			"target":34963
		},
		{
			"buffer":0,
			"byteLength":41296,
			"byteOffset":960632,
			"target":34962
		},
		{
			"buffer":0,
			"byteLength":61944,
			"byteOffset":1001928,
			"target":34962
		},
		{
			"buffer":0,
			"byteLength":61944,
			"byteOffset":1063872,
			"target":34962
		},
		{
			"buffer":0,
			"byteLength":41296,
			"byteOffset":1125816,
			"target":34962
		},
		{
			"buffer":0,
			"byteLength":34752,
			"byteOffset":1167112,
			"target":34963
		}
	],
	"buffers":[
		{
			"byteLength":1201864,
			"uri":"ShaderSphere.bin"
		}
	]
}
