{
	"asset":{
		"generator":"Khronos glTF Blender I/O v4.0.44",
		"version":"2.0"
	},
	"scene":0,
	"scenes":[
		{
			"name":"Scene",
			"nodes":[
				2
			]
		}
	],
	"nodes":[
		{
			"name":"Looks"
		},
		{
			"mesh":0,
			"name":"WateringCanBody"
		},
		{
			"children":[
				0,
				1
			],
			"name":"wateringcan",
			"rotation":[
				0.7071068286895752,
				0,
				0,
				0.7071068286895752
			]
		}
	],
	"materials":[
		{
			"doubleSided":true,
			"name":"pxrusdpreviewsurface1sg",
			"normalTexture":{
				"index":0
			},
			"pbrMetallicRoughness":{
				"baseColorTexture":{
					"index":1
				},
				"metallicRoughnessTexture":{
					"index":2
				}
			}
		}
	],
	"meshes":[
		{
			"name":"WateringCanBody",
			"primitives":[
				{
					"attributes":{
						"POSITION":0,
						"NORMAL":1,
						"TEXCOORD_0":2,
						"TANGENT":3
					},
					"indices":4,
					"material":0
				}
			]
		}
	],
	"textures":[
		{
			"sampler":0,
			"source":0
		},
		{
			"sampler":0,
			"source":1
		},
		{
			"sampler":0,
			"source":2
		}
	],
	"images":[
		{
			"mimeType":"image/png",
			"name":"wateringcan_n",
			"uri":"wateringcan_n.png"
		},
		{
			"mimeType":"image/png",
			"name":"wateringcan_bc",
			"uri":"wateringcan_bc.png"
		},
		{
			"mimeType":"image/png",
			"name":"wateringcan_m-wateringcan_r",
			"uri":"wateringcan_m-wateringcan_r.png"
		}
	],
	"accessors":[
		{
			"bufferView":0,
			"componentType":5126,
			"count":19774,
			"max":[
				31.274099349975586,
				45.506587982177734,
				14.17544174194336
			],
			"min":[
				-23.640827178955078,
				1.5661181862469675e-07,
				-14.17544174194336
			],
			"type":"VEC3"
		},
		{
			"bufferView":1,
			"componentType":5126,
			"count":19774,
			"type":"VEC3"
		},
		{
			"bufferView":2,
			"componentType":5126,
			"count":19774,
			"type":"VEC2"
		},
		{
			"bufferView":3,
			"componentType":5126,
			"count":19774,
			"type":"VEC4"
		},
		{
			"bufferView":4,
			"componentType":5123,
			"count":108096,
			"type":"SCALAR"
		}
	],
	"bufferViews":[
		{
			"buffer":0,
			"byteLength":237288,
			"byteOffset":0,
			"target":34962
		},
		{
			"buffer":0,
			"byteLength":237288,
			"byteOffset":237288,
			"target":34962
		},
		{
			"buffer":0,
			"byteLength":158192,
			"byteOffset":474576,
			"target":34962
		},
		{
			"buffer":0,
			"byteLength":316384,
			"byteOffset":632768,
			"target":34962
		},
		{
			"buffer":0,
			"byteLength":216192,
			"byteOffset":949152,
			"target":34963
		}
	],
	"samplers":[
		{
			"magFilter":9729,
			"minFilter":9987
		}
	],
	"buffers":[
		{
			"byteLength":1165344,
			"uri":"WateringCan.bin"
		}
	]
}
